<?xml version="1.0" encoding="utf-8"?><svg xmlns="http://www.w3.org/2000/svg" xmlns:xlink="http://www.w3.org/1999/xlink"><symbol viewBox="0 0 40 40" id="A-buyer" xmlns="http://www.w3.org/2000/svg"><g fill="none" stroke="#B5D8DA" stroke-linecap="round" stroke-linejoin="round" stroke-width="2" transform="translate(1 1)"><path fill="#EAF9F9" d="M19 36.374l-3.707 1.261-2.942-2.584-3.907-.253-1.729-3.513-3.513-1.729-.253-3.907-2.584-2.942L1.626 19 .365 15.293l2.584-2.942.253-3.907 3.513-1.729 1.729-3.513 3.907-.253L15.293.365 19 1.626 22.707.365l2.942 2.584 3.907.253 1.729 3.513 3.513 1.729.253 3.907 2.584 2.942L36.374 19l1.261 3.707-2.584 2.942-.253 3.907-3.513 1.729-1.729 3.513-3.907.253-2.942 2.584z"/><circle cx="19" cy="19" r="12" fill="#FFF"/><path d="M14 24l5-10h0l5 10M16.392 21.4h6.051"/></g></symbol><symbol viewBox="0 0 38 38" id="buyer" xmlns="http://www.w3.org/2000/svg"><g fill="none" stroke="#B5D8DA" stroke-linecap="round" stroke-linejoin="round" stroke-width="2" transform="translate(1 1)"><circle cx="18" cy="18" r="18" fill="#EAF9F9"/><circle cx="18" cy="18" r="12" fill="#FFF"/><path d="M26 27c0-4.18-3.582-6-8-6s-8 1.82-8 6m7.547-7c1.21 0 2.254-.398 3.136-1.193.876-.802 1.317-1.91 1.317-3.323 0-1.46-.452-2.577-1.355-3.336A4.64 4.64 0 0017.547 11c-1.207 0-2.266.419-3.18 1.266-.913.84-1.367 1.912-1.367 3.218 0 1.44.445 2.55 1.336 3.336.887.79 1.96 1.18 3.211 1.18"/></g></symbol><symbol viewBox="0 0 36 36" id="honeApply" xmlns="http://www.w3.org/2000/svg"><g stroke="#9DC8CB" fill="none" fill-rule="evenodd"><g transform="translate(5.146 6)"><rect width="3.554" height="6.397" x="13.505" y="17.059" fill="#DEF6F7" stroke-width="1.5" rx="1.777" transform="matrix(1 0 0 -1 0 40.516)"/><rect width="28.354" height="18.402" x=".75" y=".75" fill="#DEF6F7" stroke-width="1.5" rx="2"/><path d="M10.451 4.765h15.348v1H10.451zm0 4.975h15.348v1H10.451zm0 4.976h15.348v1H10.451zM8.03 4.765h-1v1h1zM8.03 9.74h-1v1h1z"/></g><g fill="#FFF" stroke-width="1.5" transform="translate(1 8.488)"><path d="M4.28 7.778c.943 0 1.799.373 2.428.98l5.706 3.85a1.66 1.66 0 01-1.857 2.754l-2.78-1.875.001 7.574H.78v-9.784a3.5 3.5 0 013.5-3.499z"/><circle cx="3.849" cy="3.849" r="3.849"/></g></g></symbol><symbol viewBox="0 0 36 36" id="iconHomeContracts" xmlns="http://www.w3.org/2000/svg"><g transform="translate(1 4)" fill-rule="nonzero" stroke="#84BABD" fill="none" opacity=".8"><rect width="16.5" height="26.5" x="16.75" y=".75" stroke-width="1.5" rx="2"/><rect width="16.5" height="26.5" x=".75" y=".75" fill="#D5F3F4" stroke-width="1.5" rx="2"/><g transform="translate(19 12)"><rect width="10.5" height="10.5" x=".75" y=".75" stroke-width="1.5" rx="2"/><path stroke-linecap="round" stroke-linejoin="round" d="M3 9V3h1.9v6H9V7.002H6.865V3H9v2.486"/></g><path d="M5.5 5.5H12m-8 9h10m-10 3h10m-10 3h10m-10 3h10m-10-12h10" stroke-linecap="round" stroke-width="1.5"/></g></symbol><symbol viewBox="0 0 37 37" id="iconHomeItemsSales" xmlns="http://www.w3.org/2000/svg"><g fill="none" fill-rule="evenodd" opacity=".8"><path fill="#D5F3F4" fill-rule="nonzero" stroke="#84BABD" stroke-width="1.5" d="M17.863 6.36c.245-.138.595-.148.866-.05h0l16.808 9.408-4.937.033v15.337a.82.82 0 01-.153.494h0l-23.915.168-.432-16H1.64c-.187 0-.36-.037-.49-.11h0z"/><text fill="#84BABD" font-family="Helvetica" font-size="15" transform="translate(.35 5.5)"><tspan x="14.329" y="22">$</tspan></text></g></symbol><symbol viewBox="0 0 37 37" id="iconHomeSearchItems" xmlns="http://www.w3.org/2000/svg"><g stroke="#84BABD" stroke-width="1.5" fill="none" fill-rule="evenodd" opacity=".8"><path fill="#D5F3F4" fill-rule="nonzero" d="M18.609 6.275l.12.036 16.808 9.407-4.937.033v15.337a.86.86 0 01-.099.41l-.054.084-23.915.168-.432-16H1.64c-.14 0-.273-.02-.385-.062l-.105-.049L17.863 6.36c.21-.117.497-.142.746-.084zM17.35 15.75c-1.312 0-2.5.532-3.359 1.391A4.734 4.734 0 0012.6 20.5c0 1.312.532 2.5 1.391 3.359a4.734 4.734 0 003.359 1.391c1.312 0 2.5-.532 3.359-1.391A4.734 4.734 0 0022.1 20.5c0-1.312-.532-2.5-1.391-3.359a4.734 4.734 0 00-3.359-1.391z"/><path stroke-linecap="round" d="M21.35 24.5l3 3"/></g></symbol><symbol viewBox="0 0 44 44" id="iconNavMenu" xmlns="http://www.w3.org/2000/svg"><text fill="#FFF" fill-rule="evenodd" font-family="material" font-size="24"><tspan x="0" y="30"></tspan></text></symbol></svg>