<svg xmlns="http://www.w3.org/2000/svg" width="40" height="40" viewBox="0 0 40 40">
  <g fill="none" stroke="#B5D8DA" stroke-linecap="round" stroke-linejoin="round" stroke-width="2" transform="translate(1 1)">
    <polygon fill="#EAF9F9" points="19 36.374 15.293 37.635 12.351 35.051 8.444 34.798 6.715 31.285 3.202 29.556 2.949 25.649 .365 22.707 1.626 19 .365 15.293 2.949 12.351 3.202 8.444 6.715 6.715 8.444 3.202 12.351 2.949 15.293 .365 19 1.626 22.707 .365 25.649 2.949 29.556 3.202 31.285 6.715 34.798 8.444 35.051 12.351 37.635 15.293 36.374 19 37.635 22.707 35.051 25.649 34.798 29.556 31.285 31.285 29.556 34.798 25.649 35.051 22.707 37.635"/>
    <circle cx="19" cy="19" r="12" fill="#FFF"/>
    <g transform="translate(14 14)">
      <polyline points="0 10 5 0 5 0 10 10"/>
      <line x1="2.392" x2="8.443" y1="7.4" y2="7.4"/>
    </g>
  </g>
</svg>
