<svg xmlns="http://www.w3.org/2000/svg" width="38" height="38" viewBox="0 0 38 38">
  <g fill="none" stroke="#B5D8DA" stroke-linecap="round" stroke-linejoin="round" stroke-width="2" transform="translate(1 1)">
    <circle cx="18" cy="18" r="18" fill="#EAF9F9"/>
    <circle cx="18" cy="18" r="12" fill="#FFF"/>
    <path d="M16 16C16 11.8191528 12.418278 10 8 10 3.581722 10 0 11.8191528 0 16M7.54744676 9C8.7568741 9 9.80070292 8.60224149 10.6826545 7.80672447 11.5590242 7.00549799 12 5.89786424 12 4.48382322 12 3.02410658 11.5478602 1.90695707 10.6454414 1.14759992 9.74860451.382533305 8.71221832 0 7.54744676 0 6.33988009 0 5.28116601.41869317 4.36758321 1.26559526 3.45400041 2.1067879 3 3.17826179 3 4.48382322 3 5.92450835 3.44469713 7.03404525 4.33595204 7.82004652 5.22348563 8.60985409 6.29522431 9 7.54744676 9" transform="translate(10 11)"/>
  </g>
</svg>
